Coordinates
version=1
nRows=19
nColumns=36
inDegrees=yes

Units are S.I. units (second, meters, Newtons, ...)
If the header above contains a line with 'inDegrees', this indicates whether rotational values are in degrees (yes) or radians (no).

endheader
time	pelvis_tilt	pelvis_list	pelvis_rotation	pelvis_tx	pelvis_ty	pelvis_tz	hip_flexion_r	hip_adduction_r	hip_rotation_r	knee_angle_r	knee_angle_r_beta	ankle_angle_r	subtalar_angle_r	mtp_angle_r	hip_flexion_l	hip_adduction_l	hip_rotation_l	knee_angle_l	knee_angle_l_beta	ankle_angle_l	subtalar_angle_l	mtp_angle_l	lumbar_extension	lumbar_bending	lumbar_rotation	arm_flex_r	arm_add_r	arm_rot_r	elbow_flex_r	pro_sup_r	arm_flex_l	arm_add_l	arm_rot_l	elbow_flex_l	pro_sup_l
      2.93333330	     -3.70176153	      3.01779770	      5.93528671	      0.00931696	      0.88712434	      0.07999703	      0.06870429	     -8.69822196	     12.55926069	      2.03596593	      0.03553431	      2.18466171	    -32.23581581	     -7.49999987	      0.59764345	     -3.18437526	     32.49355646	      2.72765340	      0.04760653	      0.04683268	    -32.87575421	     -7.49999987	    -13.77216464	     -5.60995539	      3.25605494	      2.75022067	    -16.35950581	      8.90106725	     21.14547860	     65.10459464	     21.37884091	    -15.35475070	     36.50299144	     12.38462542	     57.56627042
      2.95000000	     -3.63228880	      3.23868553	      5.49548421	      0.00787096	      0.88794461	      0.07607698	      0.28961578	     -9.41686895	     12.68136559	      2.36984061	      0.04136152	      1.60127355	    -32.42714085	     -7.49999987	      0.88900920	     -2.57239966	     32.27577727	      2.02689708	      0.03537603	     -1.12573890	    -33.11890251	     -7.49999987	    -14.28410011	     -5.77945457	      3.44432293	      3.39741025	    -16.69625286	      8.09940180	     22.27978289	     65.24380661	     22.08167347	    -14.97459640	     36.72709427	     12.75763337	     57.42279142
      2.96666670	     -3.65685043	      3.59366868	      5.26287955	      0.01146142	      0.89039698	      0.07150735	      0.29814091	    -10.10965417	     12.78428797	      2.30453968	      0.04022181	      1.22978428	    -32.37501608	     -7.49999987	      0.94040025	     -1.94082394	     32.08262549	      1.60988538	      0.02809780	     -1.83687688	    -33.28396187	     -7.49999987	    -14.27050587	     -6.24839537	      3.18997402	      4.10441130	    -16.58979206	      7.95236400	     22.97632199	     65.29695679	     22.38301595	    -14.73744724	     36.99920278	     12.85283421	     57.36140594
      2.98333330	     -3.68928564	      3.72617148	      5.07582305	      0.00784350	      0.89462823	      0.06807310	      0.47535338	    -10.56682183	     12.63919218	      2.54344363	      0.04439147	      0.70012334	    -32.53289707	     -7.49999987	      1.05172180	     -1.52315442	     32.03162130	      1.12301259	      0.01960027	     -2.46276125	    -33.33898601	     -7.49999987	    -14.47319781	     -6.47921033	      3.68349538	      4.08749657	    -16.34567642	      4.18347229	     25.16885086	     68.32955259	     23.79913783	    -14.09024933	     43.12577948	     12.15074920	     54.16011196
      3.00000000	     -3.83728055	      3.89826893	      4.80637985	      0.00264519	      0.89465638	      0.06396438	      1.10775463	    -11.04703046	     12.91976777	      2.97840812	      0.05198303	      0.51880823	    -32.49056588	     -7.49999987	      1.08495531	     -1.04126147	     31.86058691	      1.02904637	      0.01796025	     -2.66540320	    -33.35704070	     -7.49999987	    -14.53330203	     -6.67318940	      3.38732422	      5.24664295	    -16.17572950	      4.15688919	     26.30845892	     68.40531272	     24.54597382	    -13.62315744	     43.21052920	     12.47202486	     54.06772210
      3.01666670	     -3.99712147	      3.97847408	      4.65859175	      0.00161694	      0.89727585	      0.05819093	      1.71934996	    -11.51061384	     12.98733423	      3.48179732	      0.06076883	      0.10032560	    -32.40200075	     -7.49999987	      1.31834913	     -0.60908946	     31.80188737	      0.88926614	      0.01552062	     -3.06447588	    -33.31544825	     -7.49999987	    -14.72014580	     -6.71026539	      3.49505010	      5.85544480	    -16.14871219	      2.95556991	     29.19433339	     69.56370841	     25.82717052	    -12.86670607	     44.33460248	     13.03280413	     55.92262501
      3.03333330	     -4.25655677	      4.24118567	      4.60035728	      0.00030037	      0.89925545	      0.05301664	      2.41154324	    -12.17311630	     13.18422173	      4.05666739	      0.07080220	     -0.39172188	    -32.36039324	     -7.49999987	      1.60275658	      0.04201508	     31.74592308	      0.82173825	      0.01434204	     -3.35834955	    -33.25766452	     -7.49999987	    -14.80351721	     -7.09534037	      3.76950235	      6.13925070	    -15.40578853	     -1.31230974	     32.41750732	     75.99575517	     27.51122585	    -11.77009565	     48.67905466	     12.72542458	     49.73131788
      3.05000000	     -4.43732944	      4.10985616	      4.50217254	      0.00402813	      0.89233768	      0.04997217	      2.79162124	    -12.30038477	     13.23274116	      4.33850041	      0.07572112	     -0.70911045	    -32.39418502	     -7.49999987	      1.32329925	      0.13517441	     31.82927594	      0.80542096	      0.01405725	     -2.86807116	    -33.15475365	     -7.49999987	    -14.56432906	     -6.90083726	      3.39410029	      6.96065847	    -14.98783688	     -1.47064689	     35.95172213	     75.34092239	     28.36953557	    -10.89924354	     48.40341556	     13.14133817	     50.23304648
      3.06666670	     -4.65290536	      3.72829127	      4.37817303	      0.00505935	      0.89371734	      0.04764993	      3.32543379	    -12.06473636	     13.20175087	      4.95875551	      0.08654661	     -0.73567317	    -32.47692696	     -7.49999987	      1.11594110	     -0.02577744	     31.86934460	      0.73315965	      0.01279605	     -2.39189803	    -33.07219547	     -7.49999987	    -14.22045426	     -6.49041787	      3.41208350	      6.92590713	    -13.95442817	     -3.98220114	     40.79324795	     79.37914799	     29.41974384	     -9.72359835	     46.85291444	     14.08937531	     52.01893253
      3.08333330	     -4.85255548	      3.35848092	      4.17803997	      0.00836510	      0.89617081	      0.04617979	      3.85283075	    -11.79587718	     13.16019861	      5.53971364	      0.09668624	     -0.75607013	    -32.55899949	     -7.49999987	      1.02255393	     -0.28203719	     31.84183751	      0.61004210	      0.01064724	     -2.10673184	    -33.00954073	     -7.49999987	    -13.79223038	     -6.10542905	      3.19651414	      6.40737135	    -12.75920874	     -4.65071261	     47.04568224	     79.27493935	     29.89311497	     -8.65855690	     41.58374220	     16.19070800	     56.87708258
      3.10000000	     -5.16618751	      3.16871636	      3.85934810	      0.01376368	      0.89846921	      0.04214359	      4.17690829	    -11.82231535	     13.38495015	      5.73778164	      0.10014318	     -1.35630488	    -32.67601013	     -7.49999987	      1.45395847	     -0.25321287	     31.57126135	      0.47196784	      0.00823739	     -2.32514168	    -33.00873764	     -7.49999987	    -13.05406035	     -5.94328094	      3.24269173	      5.01622463	    -11.70099603	     -3.75992480	     55.11550197	     77.10736393	     29.99970515	     -7.51231539	     37.62839115	     19.14641078	     57.02933014
      3.11666670	     -5.30308112	      2.94659699	      3.82410039	      0.02048626	      0.89831622	      0.03851010	      3.81977336	    -11.76719710	     13.44746123	      5.58489001	      0.09747472	     -1.61123165	    -32.30889602	     -7.49999987	      1.22645014	     -0.37052359	     31.49668452	      0.42699858	      0.00745253	     -2.09644303	    -32.86816018	     -7.49999987	    -12.32204050	     -5.73575836	      3.03874884	      2.86518330	    -10.00538999	     -4.48017760	     65.04216090	     81.75773892	     28.34442824	     -5.41471637	     20.71984284	     26.44083493	     71.21034262
      3.13333330	     -5.53947493	      2.85063308	      3.85362572	      0.01088662	      0.90032913	      0.03294850	      4.15566390	    -11.99289052	     13.39870106	      5.77672599	      0.10082289	     -1.95147491	    -32.06870095	     -7.49999987	      1.14907018	     -0.21452760	     31.54100954	      0.40743436	      0.00711107	     -1.96662592	    -32.71667080	     -7.49999987	    -11.94237836	     -5.59166987	      4.07121234	      3.47725285	     -9.51541839	     -4.85447662	     73.87381997	     80.62231102	     28.77409371	     -2.59799731	     17.15350363	     33.27270941	     70.52973800
      3.15000000	     -5.69144858	      2.88743833	      4.03155812	      0.00517694	      0.89520257	      0.03016114	      4.62515410	    -12.35757840	     13.63605548	      6.03039214	      0.10525020	     -1.89620546	    -32.00808818	     -7.49999987	      1.22104721	      0.11663047	     31.70740067	      0.43455394	      0.00758440	     -1.87967147	    -32.67528002	     -7.49999987	    -11.81899701	     -5.55773171	      3.86226570	      2.45559820	     -8.10068354	     -1.37088755	     84.51836682	     80.97634463	     27.80275256	     -0.08788654	     11.44489227	     43.47241792	     71.21390828
      3.16666670	     -5.87381513	      3.08997063	      4.20547211	      0.00449051	      0.88227562	      0.02889490	      5.49587429	    -12.95041488	     13.64474801	      6.89573304	      0.12035325	     -1.77100700	    -32.20608882	     -7.49999987	      2.09344296	      0.71029820	     31.85870698	      0.43575384	      0.00760534	     -2.53188339	    -32.92792957	     -7.49999987	    -11.96992948	     -5.88032628	      4.85343549	      2.89130102	     -7.76721934	      2.69122722	    101.14962766	     81.65165033	     28.09656103	      2.17774992	     13.53500050	     55.11971547	     71.78317441
      3.18333330	     -6.11498049	      3.23106733	      4.75475013	      0.00172521	      0.88745993	      0.02415452	      6.37713066	    -13.35368035	     13.50666905	      7.99582493	      0.13955347	     -1.75681565	    -32.21562568	     -7.49999987	      2.53183522	      1.10320625	     32.21824229	      0.45941268	      0.00801826	     -2.88596985	    -32.90576961	     -7.49999987	    -12.18165657	     -6.17801667	      5.65086349	      6.01712794	     -7.02319740	      7.96782490	    112.57166231	     83.02696769	     29.21640239	      4.16826409	     17.80764343	     64.55605667	     72.54272647
      3.20000000	     -5.80711773	      3.28405020	      5.33559594	      0.00616974	      0.90095598	      0.01918808	      5.96020518	    -13.73674592	     12.87439407	      8.25149755	      0.14401580	     -2.31649003	    -32.27940810	     -7.49999987	      2.39964233	      1.38814970	     32.69861501	      0.45957914	      0.00802117	     -3.08430183	    -32.83600822	     -7.49999987	    -13.16758311	     -6.07898435	      4.96359659	     10.49292332	     -5.87543321	     15.78904888	    118.30659716	     90.72440758	     31.38112759	      5.81007454	     21.13204897	     70.53725217	     74.84257467
      3.21666670	     -5.45190331	      3.43888931	      5.90516493	      0.00997659	      0.90967176	      0.01555339	      5.09219370	    -14.03224210	     12.38959228	      8.00781735	      0.13976278	     -3.06880571	    -32.19402434	     -7.49999987	      1.96499568	      1.67757256	     33.09322412	      0.45427055	      0.00792852	     -3.05427396	    -32.60933935	     -7.49999987	    -14.05601449	     -6.44825588	      4.77827727	     13.71827750	     -5.14755772	     22.68956636	    122.38438333	     91.89116349	     34.87900684	      7.71563884	     25.24144602	     73.39746459	     75.50656426
      3.23333330	     -5.28859188	      3.48013680	      6.42321084	      0.00804673	      0.90280655	      0.01387064	      4.61290136	    -14.34193755	     11.72166422	      7.76706369	      0.13556083	     -3.54163291	    -32.23019812	     -7.49999987	      1.99207019	      2.00199636	     33.51279956	      0.41268671	      0.00720274	     -3.11436867	    -32.48873393	     -7.49999987	    -15.16352947	     -6.59157974	      3.16163279	     19.23978750	     -3.84216038	     29.13835620	    125.47954463	     93.46105498	     40.27672349	      9.01436016	     28.10401332	     72.62195073	     76.16759825
